# xmcd
#
# Track frame offsets:
#	150
#	19080
#	41760
#	68287
#	83697
#	103752
#	123825
#	140820
#	162212
#	174447
#
# Disc length: 2665 seconds
#
# Revision: 2
# Processed by: cddbd v1.5.1PL0 Copyright (c) Steve Scherf et al.
# Submitted via: audiograbber 1.83.01
#
DISCID=790a670a
DTITLE=Daniele Silvestri - Sig. Dapatas
DYEAR=1999
DGENRE=Blues
TTITLE0=Aria
TTITLE1=Pozzo dei desideri
TTITLE2=Tu non torni mai
TTITLE3=Amore mio
TTITLE4=Insieme
TTITLE5=Giro in si
TTITLE6=Desaparecido
TTITLE7=Adesso basta
TTITLE8=Sto benissimo
TTITLE9=Sono io
EXTD=YEAR: 1999 ID3G: 0
EXTT0=
EXTT1=
EXTT2=
EXTT3=
EXTT4=
EXTT5=
EXTT6=
EXTT7=
EXTT8=
EXTT9=
PLAYORDER=
